<?xml version="1.0" encoding="UTF-8"?>
<svg id="_图层_1" data-name="图层 1" xmlns="http://www.w3.org/2000/svg" viewBox="0 0 9055.94 2053.51">
  <defs>
    <style>
      .cls-1 {
        fill: #eba4a0;
      }

      .cls-2 {
        fill: #2d393f;
      }

      .cls-3 {
        fill: #526369;
      }
    </style>
  </defs>
  <path class="cls-2" d="M945.58,2052.18h-329.92V410.44H0v-212.25C0,88.73,88.73,0,198.18,0h1560.83v210.02c0,110.69-89.73,200.42-200.42,200.42h-415.23v1443.96c0,109.23-88.55,197.78-197.78,197.78Z"/>
  <path class="cls-2" d="M2858.4,1304.6l-234.53-688.94-427.68,1240.12c-42.42,117.84-154.21,196.4-279.45,196.4h-362.93L2254.64,200.89C2300.42,79.98,2416.22,0,2545.5,0h371.53l691.85,1827.54c41.09,108.54-39.1,224.64-155.16,224.64h-331.48l-131.93-366.46"/>
  <path class="cls-2" d="M4432.55,2052.18h-328.19V410.44h-615.65v-210.71c0-110.31,89.42-199.73,199.73-199.73h1559.28v209.38c0,111.04-90.02,201.06-201.06,201.06h-414.59v1442.23c0,110.19-89.32,199.51-199.51,199.51Z"/>
  <path class="cls-2" d="M8855.21,2053.51h-356.29l-703.6-1231.31v1231.31h-527.7V1.33h0c344.45,0,662.48,184.56,833.38,483.63l427.24,747.68V1.33h527.7v1851.45c0,110.86-89.87,200.73-200.73,200.73Z"/>
  <path class="cls-2" d="M5972.33,1642.42h1099.38v207.33c0,112.17-90.93,203.1-203.1,203.1h-1423.98V202.68c0-111.57,90.44-202.01,202.01-202.01h1425.08v208.79c0,111.37-90.28,201.65-201.65,201.65h-897.74"/>
  <path class="cls-3" d="M6837.17,806.89v210.29c0,110.54-89.61,200.14-200.14,200.14"/>
  <path class="cls-1" d="M6042.14,1217.32v-205.98c0-112.92,91.54-204.46,204.46-204.46h590.58v216.83c0,106.93-86.68,193.61-193.61,193.61h-601.43Z"/>
</svg>